HIERARCHY
ROOT root     
{
	OFFSET 0.0000 0.0000 0.0000
	CHANNELS 6 Xposition Yposition Zposition Zrotation Yrotation Xrotation
	JOINT pelvis   
	{
		OFFSET 0.0000 0.0000 0.0000
		CHANNELS 3 Zrotation Yrotation Xrotation
		JOINT thorax   
		{
			OFFSET 0.0000 23.0750 -5.0000
			CHANNELS 3 Zrotation Yrotation Xrotation
			JOINT rclavicle
			{
				OFFSET 0.0000 28.0009 0.0000
				CHANNELS 3 Zrotation Yrotation Xrotation
				JOINT rhumerus 
				{
					OFFSET -18.5725 5.5939 0.0000
					CHANNELS 3 Zrotation Yrotation Xrotation
					JOINT rradius  
					{
						OFFSET -24.8459 0.0000 0.0000
						CHANNELS 3 Zrotation Yrotation Xrotation
						JOINT rhand    
						{
							OFFSET -24.5477 0.0000 0.0000
							CHANNELS 3 Zrotation Yrotation Xrotation
							End Site
							{
								OFFSET -8.1826 0.0000 0.0000
							}
						}
					}
				}
			}
			JOINT lclavicle
			{
				OFFSET 0.0000 28.0009 0.0000
				CHANNELS 3 Zrotation Yrotation Xrotation
				JOINT lhumerus 
				{
					OFFSET 18.5725 5.5939 0.0000
					CHANNELS 3 Zrotation Yrotation Xrotation
					JOINT lradius  
					{
						OFFSET 24.8459 0.0000 0.0000
						CHANNELS 3 Zrotation Yrotation Xrotation
						JOINT lhand    
						{
							OFFSET 24.5477 0.0000 0.0000
							CHANNELS 3 Zrotation Yrotation Xrotation
							End Site
							{
								OFFSET 8.1826 0.0000 0.0000
							}
						}
					}
				}
			}
			JOINT head     
			{
				OFFSET 0.0000 35.2030 0.0000
				CHANNELS 3 Zrotation Yrotation Xrotation
				End Site
				{
					OFFSET 0.0000 11.7343 0.0000
				}
			}
		}
		JOINT rfemur   
		{
			OFFSET -8.2817 0.0000 0.0000
			CHANNELS 3 Zrotation Yrotation Xrotation
			JOINT rtibia   
			{
				OFFSET 0.0000 -43.3627 0.0000
				CHANNELS 3 Zrotation Yrotation Xrotation
				JOINT rfoot    
				{
					OFFSET 0.0000 -38.2947 0.0000
					CHANNELS 3 Zrotation Yrotation Xrotation
					JOINT rtoes    
					{
						OFFSET 0.0000 0.0000 16.6054
						CHANNELS 3 Zrotation Yrotation Xrotation
						End Site
						{
							OFFSET 0.0000 0.0000 5.5351
						}
					}
				}
			}
		}
		JOINT lfemur   
		{
			OFFSET 8.2817 0.0000 0.0000
			CHANNELS 3 Zrotation Yrotation Xrotation
			JOINT ltibia   
			{
				OFFSET 0.0000 -43.3627 0.0000
				CHANNELS 3 Zrotation Yrotation Xrotation
				JOINT lfoot    
				{
					OFFSET 0.0000 -38.2947 0.0000
					CHANNELS 3 Zrotation Yrotation Xrotation
					JOINT ltoes    
					{
						OFFSET 0.0000 0.0000 16.6054
						CHANNELS 3 Zrotation Yrotation Xrotation
						End Site
						{
							OFFSET 0.0000 0.0000 5.5351
						}
					}
				}
			}
		}
	}
}
MOTION
Frames: 7
Frame Time: .0333333
75.296 88.505 -1.6815 13.5568 87.1489 34.0925 0 -0 0 0.755213 -4.80982 -9.00809 15.3358 -9.92787 4.83357e-05 11.258 18.378 -10.2665 -180 68.4168 -180 -7.54963 15.2001 -1.00881 -24.7075 16.0899 -9.69583e-05 -40.0532 -4.83149 -16.9969 -180 -87.1278 180 13.835 1.488 0.180505 -1.93618 -6.8606 -11.9259 -5.3329 -8.33382 -24.5862 -0 -0 47.6489 1.87229e-06 -9.44623 10.3225 -1.70759 7.97156e-06 -40.3196 -3.53012 -1.53079 -17.088 -0 -0 27.7043 5.52799e-06 3.39161 8.48739 0.501098 5.2201e-06 -52.7702 
76.319 88.86 -1.5659 15.719 87.6418 36.3735 0 -0 0 1.3912 -5.45314 -8.83619 15.1689 -10.0542 4.40188e-05 11.1692 17.9593 -11.7273 -180 68.3341 -180 -7.89804 15.1855 -1.05449 -24.3794 15.8242 0.000170207 -39.285 -5.30309 -16.8951 180 -85.9106 180 14.2216 1.15259 0.143802 -2.94665 -6.85885 -12.8566 -4.92869 -7.72114 -25.7649 -0 -0 46.6253 -1.25921e-06 -9.30761 9.77366 -1.59369 1.49456e-05 -39.6478 -3.22081 -1.92478 -16.4183 -0 -0 26.989 6.47701e-06 3.13256 10.2933 0.560293 -7.35105e-06 -55.1219 
77.352 89.197 -1.4396 18.8003 88.1363 39.5576 0 -0 0 2.01105 -6.08567 -8.668 15.0147 -10.1654 -6.63704e-06 11.1868 17.5424 -13.1652 -180 68.3021 -180 -8.25665 15.1372 -1.09893 -24.0331 15.5573 -3.90602e-05 -38.491 -5.74458 -16.9262 180 -84.7314 -180 14.5614 0.790192 0.101003 -3.91597 -6.82767 -13.8249 -4.55047 -7.08827 -26.8802 -0 -0 45.4325 -4.62004e-07 -9.19518 9.34985 -1.50648 2.2276e-05 -38.8647 -2.92025 -2.28408 -15.7589 -0 -0 26.3035 1.60926e-05 2.91624 12.0778 0.610696 -8.24945e-07 -57.6013 
78.397 89.511 -1.3069 24.0271 88.6023 44.8848 0 -0 0 2.59638 -6.70262 -8.51706 14.8897 -10.2797 6.87594e-06 11.2826 17.1676 -14.578 -180 68.3349 -180 -8.62593 15.0552 -1.14196 -23.6893 15.3182 3.96423e-05 -37.6387 -6.19427 -17.0674 -180 -83.5835 180 14.8596 0.434206 0.0566002 -4.83429 -6.76704 -14.8261 -4.216 -6.44395 -27.9502 -0 -0 44.1053 -1.7965e-06 -9.10467 9.03438 -1.44153 -1.03383e-05 -37.9775 -2.6478 -2.59965 -15.108 -0 -0 25.6375 -4.09826e-06 2.7382 13.8021 0.653703 1.50333e-06 -59.9037 
79.454 89.8 -1.1649 32.7469 88.9956 53.72 0 -0 0 3.16974 -7.29492 -8.40175 14.7805 -10.3758 -8.3668e-05 11.4669 16.8046 -15.9625 -180 68.4328 -180 -8.98844 14.9456 -1.18145 -23.353 15.0926 -6.76924e-05 -36.7453 -6.62519 -17.3184 180 -82.4693 180 15.1216 0.0953008 0.0126 -5.7026 -6.67815 -15.8511 -3.91203 -5.7642 -28.9803 -0 -0 42.6497 -1.43971e-05 -9.05004 8.82 -1.399 1.10313e-05 -37.098 -2.38643 -2.82924 -14.4776 -0 -0 25.0093 1.35982e-05 2.55983 15.4564 0.682598 -2.64374e-06 -62.0161 
80.52 90.06 -1.0144 49.6718 89.3136 70.7765 0 -0 0 3.73472 -7.85457 -8.34013 14.6887 -10.453 4.32721e-05 11.7289 16.4621 -17.3162 -180 68.5987 -180 -9.33883 14.8199 -1.21717 -23.039 14.8884 6.39573e-05 -35.801 -7.04761 -17.6593 -180 -81.4169 180 15.3637 -0.210994 -0.0284997 -6.51702 -6.562 -16.8901 -3.64212 -5.04233 -29.9872 -0 -0 41.0921 -5.26714e-06 -9.01985 8.68687 -1.37343 -1.18877e-05 -36.3284 -2.13418 -2.95263 -13.8807 -0 -0 24.4252 1.17395e-05 2.35504 17.0151 0.689495 4.71189e-06 -63.7887 
81.595 90.289 -0.8588 83.3523 89.5095 104.607 0 -0 0 4.28298 -8.37597 -8.3482 14.6277 -10.5217 3.89845e-05 12.0419 16.1596 -18.635 -180 68.8445 -180 -9.68014 14.6873 -1.25043 -22.7685 14.7279 -6.44839e-05 -34.7842 -7.48884 -18.0678 180 -80.4257 180 15.6101 -0.471404 -0.0646013 -7.27052 -6.41923 -17.9346 -3.41939 -4.28849 -30.9945 -0 -0 39.4669 1.87697e-06 -8.97987 8.60946 -1.35509 -4.84184e-06 -35.7629 -1.89775 -2.97009 -13.3236 -0 -0 23.8847 1.54629e-05 2.10884 18.4543 0.667803 -3.74371e-07 -65.0355 
